# Blender v2.93.0 OBJ File: ''
# www.blender.org
mtllib Ground.mtl
o Plane
v -13.400669 1.799757 12.511289
v 12.946477 0.793693 12.578388
v -13.243483 1.716552 -13.014176
v 12.338176 0.632225 -12.912975
v -13.448948 2.179928 -11.081362
v -13.428082 2.120087 -8.992534
v -13.281972 1.749386 -6.761249
v -13.218385 1.532113 -4.496394
v -13.469492 2.030791 -2.332836
v -13.709079 2.481198 -0.215900
v -13.696866 2.248219 2.037353
v -13.689847 2.107419 4.282407
v -13.955747 2.586785 6.463413
v -14.109893 2.865627 8.590696
v -13.944215 2.629295 10.601762
v 12.990210 0.887900 10.509928
v 12.887821 0.700706 8.399261
v 12.618686 0.564675 6.172299
v 12.318096 0.649745 3.871243
v 12.178479 0.975795 1.608394
v 12.128368 1.127880 -0.548961
v 12.146264 1.045406 -2.595789
v 12.078486 1.126625 -4.752999
v 12.031333 1.230699 -6.944943
v 12.148782 1.041477 -8.966871
v 12.292182 0.781115 -10.922543
v -11.602239 2.300993 12.541522
v -9.453089 2.225523 12.493857
v -6.970195 1.553268 12.407412
v -4.653854 1.094761 12.907042
v -2.575356 0.967399 13.344324
v -0.476134 0.706158 13.239452
v 1.707199 0.806663 13.081891
v 3.989857 1.370212 13.205137
v 6.463445 1.829086 13.171008
v 8.901746 1.913363 12.994391
v 11.062959 1.471478 12.754444
v 10.159461 1.004865 -13.156386
v 7.989381 1.254246 -13.434358
v 5.682062 1.622645 -14.326274
v 3.516438 1.603835 -14.742874
v 1.545077 1.205308 -14.137025
v -0.423666 0.892413 -13.386744
v -2.722653 1.352499 -13.689183
v -4.994777 1.785722 -13.821655
v -7.044059 1.770112 -13.428352
v -9.071577 1.705062 -13.010592
v -11.273147 1.977792 -13.092052
v 11.121953 1.664627 10.720047
v 8.978412 2.208335 10.993866
v 6.501838 2.123167 11.193109
v 3.971583 1.605404 11.235577
v 1.626180 1.046052 11.189219
v -0.665702 1.107885 11.571951
v -2.787320 1.423946 11.702758
v -4.863960 1.601620 10.951871
v -7.393873 2.238456 10.432308
v -10.048191 3.137915 10.593843
v -12.223289 3.255935 10.650518
v 10.998612 1.387566 8.569617
v 8.884297 1.892852 8.822159
v 6.493827 1.882456 9.009397
v 4.023481 1.429276 9.044064
v 1.703474 0.863592 8.957622
v -0.512712 0.790676 9.167525
v -2.569964 0.961271 9.153309
v -4.758738 1.325324 8.580746
v -7.466370 2.298193 8.413775
v -10.166502 3.288500 8.579153
v -12.386648 3.509580 8.628007
v 10.665433 1.022359 6.226706
v 8.586589 1.319561 6.421284
v 6.362909 1.247821 6.625485
v 4.056256 0.882177 6.701200
v 1.824275 0.459845 6.606741
v -0.199350 0.209421 6.469113
v -2.200239 0.191274 6.371415
v -4.461566 0.668426 6.202115
v -7.230898 1.860585 6.304819
v -9.942483 2.896768 6.439933
v -12.182773 3.158140 6.480443
v 10.265557 0.873667 3.829907
v 8.228194 0.891745 3.930843
v 6.152198 0.688962 4.129433
v 4.046227 0.345330 4.288059
v 1.961535 0.122265 4.293340
v -0.049202 0.048995 4.217665
v -2.083985 0.000905 4.167027
v -4.299247 0.308965 4.126483
v -6.934748 1.325439 4.153892
v -9.577937 2.257413 4.247468
v -11.835773 2.531258 4.288912
v 10.045034 1.127880 1.534372
v 8.011812 0.975795 1.608394
v 6.047457 0.614189 1.784782
v 4.085757 0.232157 1.980334
v 2.077892 0.009667 2.083738
v 0.000000 0.000000 2.083333
v -2.087288 0.007993 2.082434
v -4.307783 0.285228 2.051223
v -6.726716 0.940155 2.013462
v -9.256271 1.705534 2.048825
v -11.691827 2.367578 2.047602
v 9.985935 1.307242 -0.636261
v 7.961701 1.127880 -0.548962
v 6.012267 0.721504 -0.351171
v 4.072535 0.285684 -0.139048
v 2.077406 0.017989 -0.008756
v 0.000000 0.000000 0.000000
v -2.094585 0.022742 -0.002560
v -4.345356 0.361172 -0.040660
v -6.701286 0.912151 -0.102688
v -9.101386 1.517997 -0.142681
v -11.600970 2.372509 -0.196376
v 10.036556 1.148919 -2.644413
v 8.007834 0.992003 -2.569245
v 6.046289 0.619704 -2.386039
v 4.092329 0.225613 -2.193144
v 2.081250 0.006322 -2.086411
v 0.000000 0.000000 -2.083333
v -2.087288 0.007993 -2.084233
v -4.307783 0.285228 -2.115444
v -6.652158 0.815843 -2.184973
v -9.020739 1.402883 -2.279085
v -11.393016 2.026645 -2.353263
v 10.014194 1.171348 -4.788631
v 8.066875 0.870605 -4.639870
v 6.083779 0.556320 -4.476120
v 4.114865 0.178101 -4.268932
v 2.083163 0.000666 -4.167102
v 0.000000 0.000000 -4.166667
v -2.083333 0.000000 -4.166667
v -4.231839 0.133158 -4.186093
v -6.615038 0.769780 -4.322646
v -9.035641 1.493673 -4.489961
v -11.251605 1.780210 -4.557968
v 9.998568 1.245811 -6.982815
v 8.077101 0.925536 -6.826492
v 6.073723 0.676088 -6.684324
v 4.073359 0.364540 -6.488121
v 2.047851 0.117815 -6.334810
v -0.041440 0.087098 -6.335117
v -2.092028 0.018274 -6.267859
v -4.256044 0.203801 -6.313435
v -6.676213 0.955622 -6.528313
v -9.120353 1.757207 -6.754338
v -11.343023 2.068947 -6.846217
v 10.071194 1.195598 -9.092514
v 8.036003 1.161560 -9.092065
v 5.972171 1.045868 -9.067367
v 3.937510 0.768879 -8.957865
v 1.795241 0.711362 -8.977088
v -0.328495 0.693430 -9.008880
v -2.316718 0.492024 -8.798530
v -4.417994 0.566157 -8.580198
v -6.819639 1.302052 -8.746212
v -9.252411 2.100382 -8.985394
v -11.486422 2.443959 -9.092757
v 10.119373 1.161480 -11.175356
v 7.964271 1.394881 -11.388222
v 5.731851 1.600573 -12.006866
v 3.599623 1.498071 -12.233406
v 1.479484 1.383036 -12.026389
v -0.602848 1.276611 -11.642169
v -2.779812 1.472816 -11.736107
v -4.846956 1.482156 -11.407822
v -7.039290 1.779741 -11.183146
v -9.282249 2.179858 -11.081337
v -11.511065 2.514663 -11.182777
vt 0.916667 0.916667
vt 1.000000 0.916667
vt 1.000000 1.000000
vt 0.916667 1.000000
vt 0.916667 0.000000
vt 1.000000 0.000000
vt 1.000000 0.083333
vt 0.916667 0.083333
vt 1.000000 0.166667
vt 0.916667 0.166667
vt 1.000000 0.250000
vt 0.916667 0.250000
vt 1.000000 0.333333
vt 0.916667 0.333333
vt 1.000000 0.416667
vt 0.916667 0.416667
vt 1.000000 0.500000
vt 0.916667 0.500000
vt 1.000000 0.583333
vt 0.916667 0.583333
vt 1.000000 0.666667
vt 0.916667 0.666667
vt 1.000000 0.750000
vt 0.916667 0.750000
vt 1.000000 0.833333
vt 0.916667 0.833333
vt 0.000000 0.833333
vt 0.083333 0.833333
vt 0.083333 0.916667
vt 0.000000 0.916667
vt 0.166667 0.833333
vt 0.166667 0.916667
vt 0.250000 0.833333
vt 0.250000 0.916667
vt 0.333333 0.833333
vt 0.333333 0.916667
vt 0.416667 0.833333
vt 0.416667 0.916667
vt 0.500000 0.833333
vt 0.500000 0.916667
vt 0.583333 0.833333
vt 0.583333 0.916667
vt 0.666667 0.833333
vt 0.666667 0.916667
vt 0.750000 0.833333
vt 0.750000 0.916667
vt 0.833333 0.833333
vt 0.833333 0.916667
vt 0.000000 0.750000
vt 0.083333 0.750000
vt 0.166667 0.750000
vt 0.250000 0.750000
vt 0.333333 0.750000
vt 0.416667 0.750000
vt 0.500000 0.750000
vt 0.583333 0.750000
vt 0.666667 0.750000
vt 0.750000 0.750000
vt 0.833333 0.750000
vt 0.000000 0.666667
vt 0.083333 0.666667
vt 0.166667 0.666667
vt 0.250000 0.666667
vt 0.333333 0.666667
vt 0.416667 0.666667
vt 0.500000 0.666667
vt 0.583333 0.666667
vt 0.666667 0.666667
vt 0.750000 0.666667
vt 0.833333 0.666667
vt 0.000000 0.583333
vt 0.083333 0.583333
vt 0.166667 0.583333
vt 0.250000 0.583333
vt 0.333333 0.583333
vt 0.416667 0.583333
vt 0.500000 0.583333
vt 0.583333 0.583333
vt 0.666667 0.583333
vt 0.750000 0.583333
vt 0.833333 0.583333
vt 0.000000 0.500000
vt 0.083333 0.500000
vt 0.166667 0.500000
vt 0.250000 0.500000
vt 0.333333 0.500000
vt 0.416667 0.500000
vt 0.500000 0.500000
vt 0.583333 0.500000
vt 0.666667 0.500000
vt 0.750000 0.500000
vt 0.833333 0.500000
vt 0.000000 0.416667
vt 0.083333 0.416667
vt 0.166667 0.416667
vt 0.250000 0.416667
vt 0.333333 0.416667
vt 0.416667 0.416667
vt 0.500000 0.416667
vt 0.583333 0.416667
vt 0.666667 0.416667
vt 0.750000 0.416667
vt 0.833333 0.416667
vt 0.000000 0.333333
vt 0.083333 0.333333
vt 0.166667 0.333333
vt 0.250000 0.333333
vt 0.333333 0.333333
vt 0.416667 0.333333
vt 0.500000 0.333333
vt 0.583333 0.333333
vt 0.666667 0.333333
vt 0.750000 0.333333
vt 0.833333 0.333333
vt 0.000000 0.250000
vt 0.083333 0.250000
vt 0.166667 0.250000
vt 0.250000 0.250000
vt 0.333333 0.250000
vt 0.416667 0.250000
vt 0.500000 0.250000
vt 0.583333 0.250000
vt 0.666667 0.250000
vt 0.750000 0.250000
vt 0.833333 0.250000
vt 0.000000 0.166667
vt 0.083333 0.166667
vt 0.166667 0.166667
vt 0.250000 0.166667
vt 0.333333 0.166667
vt 0.416667 0.166667
vt 0.500000 0.166667
vt 0.583333 0.166667
vt 0.666667 0.166667
vt 0.750000 0.166667
vt 0.833333 0.166667
vt 0.000000 0.083333
vt 0.083333 0.083333
vt 0.166667 0.083333
vt 0.250000 0.083333
vt 0.333333 0.083333
vt 0.416667 0.083333
vt 0.500000 0.083333
vt 0.583333 0.083333
vt 0.666667 0.083333
vt 0.750000 0.083333
vt 0.833333 0.083333
vt 0.000000 0.000000
vt 0.083333 0.000000
vt 0.166667 0.000000
vt 0.250000 0.000000
vt 0.333333 0.000000
vt 0.416667 0.000000
vt 0.500000 0.000000
vt 0.583333 0.000000
vt 0.666667 0.000000
vt 0.750000 0.000000
vt 0.833333 0.000000
vt 0.083333 1.000000
vt 0.000000 1.000000
vt 0.166667 1.000000
vt 0.250000 1.000000
vt 0.333333 1.000000
vt 0.416667 1.000000
vt 0.500000 1.000000
vt 0.583333 1.000000
vt 0.666667 1.000000
vt 0.750000 1.000000
vt 0.833333 1.000000
vn 0.1780 0.9814 -0.0716
vn 0.3671 0.9272 0.0741
vn 0.3498 0.9291 -0.1198
vn 0.2751 0.9511 -0.1406
vn 0.1675 0.9851 -0.0383
vn 0.0856 0.9892 0.1192
vn 0.0743 0.9945 0.0743
vn 0.0681 0.9960 -0.0580
vn 0.0350 0.9991 0.0233
vn 0.0139 0.9991 0.0405
vn 0.0433 0.9975 -0.0558
vn 0.1303 0.9893 -0.0660
vn -0.1656 0.9856 0.0326
vn 0.1487 0.9883 0.0335
vn 0.2440 0.9641 0.1051
vn 0.2166 0.9500 0.2248
vn 0.0589 0.9509 0.3038
vn 0.0063 0.9630 0.2695
vn -0.0107 0.9762 0.2167
vn -0.0298 0.9752 0.2191
vn -0.0945 0.9732 0.2098
vn 0.0001 0.9889 0.1488
vn 0.0452 0.9980 0.0452
vn -0.1531 0.9731 0.1720
vn 0.1374 0.9793 0.1486
vn 0.2981 0.9459 0.1282
vn 0.2828 0.9502 0.1309
vn 0.0666 0.9839 0.1661
vn -0.0511 0.9768 0.2077
vn -0.0129 0.9751 0.2214
vn -0.0651 0.9784 0.1959
vn -0.1304 0.9781 0.1624
vn -0.0833 0.9878 0.1313
vn -0.0875 0.9953 0.0416
vn -0.1387 0.9837 0.1141
vn 0.1286 0.9851 0.1145
vn 0.2917 0.9526 0.0862
vn 0.2738 0.9604 0.0515
vn 0.0734 0.9971 0.0204
vn -0.0162 0.9996 0.0249
vn -0.0075 0.9989 0.0472
vn -0.0993 0.9926 0.0704
vn -0.1639 0.9840 0.0700
vn -0.1369 0.9898 0.0393
vn -0.1562 0.9873 0.0294
vn -0.0628 0.9829 -0.1733
vn 0.1954 0.9803 -0.0290
vn 0.2634 0.9646 0.0113
vn 0.2411 0.9697 -0.0392
vn 0.0939 0.9949 -0.0365
vn 0.0019 1.0000 -0.0019
vn -0.0017 1.0000 -0.0014
vn -0.0983 0.9951 -0.0133
vn -0.1959 0.9802 -0.0289
vn -0.1754 0.9833 -0.0477
vn -0.1157 0.9930 -0.0243
vn 0.0265 0.9832 -0.1804
vn 0.2914 0.9530 -0.0827
vn 0.2436 0.9690 -0.0411
vn 0.2251 0.9737 -0.0357
vn 0.1367 0.9904 -0.0201
vn 0.0074 1.0000 -0.0035
vn -0.0059 1.0000 -0.0028
vn -0.1217 0.9924 -0.0179
vn -0.2124 0.9763 -0.0414
vn -0.2006 0.9777 -0.0613
vn -0.0854 0.9935 -0.0746
vn -0.0030 0.9986 0.0528
vn 0.2939 0.9556 -0.0231
vn 0.2678 0.9628 -0.0370
vn 0.2446 0.9696 0.0103
vn 0.1361 0.9905 0.0200
vn 0.0073 1.0000 0.0035
vn -0.0067 1.0000 0.0020
vn -0.1207 0.9926 0.0150
vn -0.2011 0.9788 0.0393
vn -0.1864 0.9805 0.0629
vn -0.0781 0.9939 0.0781
vn -0.1393 0.9902 -0.0093
vn 0.1926 0.9717 -0.1364
vn 0.3037 0.9383 -0.1656
vn 0.3132 0.9466 -0.0770
vn 0.1309 0.9914 -0.0043
vn -0.0096 0.9999 -0.0100
vn -0.0196 0.9991 -0.0379
vn -0.1095 0.9926 -0.0534
vn -0.1786 0.9832 -0.0372
vn -0.1373 0.9905 0.0114
vn -0.0296 0.9967 0.0758
vn -0.2531 0.9289 -0.2705
vn 0.1094 0.9596 -0.2594
vn 0.3306 0.9225 -0.1992
vn 0.3706 0.9160 -0.1537
vn 0.1768 0.9776 -0.1141
vn -0.0134 0.9968 -0.0793
vn -0.0735 0.9909 -0.1127
vn -0.1416 0.9727 -0.1838
vn -0.1660 0.9640 -0.2077
vn -0.0798 0.9795 -0.1847
vn 0.0667 0.9896 -0.1271
vn -0.3216 0.9325 -0.1644
vn 0.1030 0.9817 -0.1599
vn 0.3399 0.9293 -0.1446
vn 0.3634 0.9141 -0.1798
vn 0.2181 0.9475 -0.2338
vn 0.0429 0.9713 -0.2341
vn -0.0779 0.9772 -0.1973
vn -0.2002 0.9590 -0.2008
vn -0.1695 0.9569 -0.2357
vn -0.0377 0.9697 -0.2414
vn 0.1618 0.9637 -0.2122
vn -0.3458 0.9277 0.1409
vn 0.0788 0.9925 0.0939
vn 0.3344 0.9418 0.0333
vn 0.2988 0.9532 -0.0448
vn 0.1662 0.9767 -0.1358
vn 0.1104 0.9830 -0.1465
vn -0.0166 0.9940 -0.1080
vn -0.2313 0.9691 -0.0853
vn -0.1912 0.9770 -0.0950
vn -0.0295 0.9916 -0.1259
vn 0.2200 0.9649 -0.1434
vn -0.2780 0.8339 0.4767
vn 0.0507 0.9023 0.4282
vn 0.2924 0.9088 0.2978
vn 0.1598 0.9515 0.2628
vn -0.0032 0.9659 0.2591
vn 0.1445 0.9619 0.2320
vn 0.0128 0.9843 0.1763
vn -0.2383 0.9632 0.1245
vn -0.1880 0.9736 0.1296
vn -0.0230 0.9891 0.1458
vn 0.2355 0.9639 0.1245
vn -0.1572 0.9511 -0.2658
vn 0.1416 0.9612 -0.2368
vn 0.0642 0.9916 -0.1119
vn 0.0750 0.9954 0.0603
vn 0.1032 0.9939 0.0396
vn 0.1547 0.9802 -0.1238
vn -0.1437 0.9779 -0.1517
vn -0.1275 0.9917 -0.0150
vn -0.0323 0.9991 0.0273
vn 0.1345 0.9905 -0.0277
vn 0.1186 0.9904 -0.0712
usemtl None
s off
f 159/1/1 26/2/1 4/3/1 38/4/1
f 37/5/2 2/6/2 16/7/2 49/8/2
f 49/8/3 16/7/3 17/9/3 60/10/3
f 60/10/4 17/9/4 18/11/4 71/12/4
f 71/12/5 18/11/5 19/13/5 82/14/5
f 82/14/6 19/13/6 20/15/6 93/16/6
f 93/16/7 20/15/7 21/17/7 104/18/7
f 104/18/8 21/17/8 22/19/8 115/20/8
f 115/20/9 22/19/9 23/21/9 126/22/9
f 126/22/10 23/21/10 24/23/10 137/24/10
f 137/24/11 24/23/11 25/25/11 148/26/11
f 148/26/12 25/25/12 26/2/12 159/1/12
f 6/27/13 158/28/13 169/29/13 5/30/13
f 158/28/14 157/31/14 168/32/14 169/29/14
f 157/31/15 156/33/15 167/34/15 168/32/15
f 156/33/16 155/35/16 166/36/16 167/34/16
f 155/35/17 154/37/17 165/38/17 166/36/17
f 154/37/18 153/39/18 164/40/18 165/38/18
f 153/39/19 152/41/19 163/42/19 164/40/19
f 152/41/20 151/43/20 162/44/20 163/42/20
f 151/43/21 150/45/21 161/46/21 162/44/21
f 150/45/22 149/47/22 160/48/22 161/46/22
f 149/47/23 148/26/23 159/1/23 160/48/23
f 7/49/24 147/50/24 158/28/24 6/27/24
f 147/50/25 146/51/25 157/31/25 158/28/25
f 146/51/26 145/52/26 156/33/26 157/31/26
f 145/52/27 144/53/27 155/35/27 156/33/27
f 144/53/28 143/54/28 154/37/28 155/35/28
f 143/54/29 142/55/29 153/39/29 154/37/29
f 142/55/30 141/56/30 152/41/30 153/39/30
f 141/56/31 140/57/31 151/43/31 152/41/31
f 140/57/32 139/58/32 150/45/32 151/43/32
f 139/58/33 138/59/33 149/47/33 150/45/33
f 138/59/34 137/24/34 148/26/34 149/47/34
f 8/60/35 136/61/35 147/50/35 7/49/35
f 136/61/36 135/62/36 146/51/36 147/50/36
f 135/62/37 134/63/37 145/52/37 146/51/37
f 134/63/38 133/64/38 144/53/38 145/52/38
f 133/64/39 132/65/39 143/54/39 144/53/39
f 132/65/40 131/66/40 142/55/40 143/54/40
f 131/66/41 130/67/41 141/56/41 142/55/41
f 130/67/42 129/68/42 140/57/42 141/56/42
f 129/68/43 128/69/43 139/58/43 140/57/43
f 128/69/44 127/70/44 138/59/44 139/58/44
f 127/70/45 126/22/45 137/24/45 138/59/45
f 9/71/46 125/72/46 136/61/46 8/60/46
f 125/72/47 124/73/47 135/62/47 136/61/47
f 124/73/48 123/74/48 134/63/48 135/62/48
f 123/74/49 122/75/49 133/64/49 134/63/49
f 122/75/50 121/76/50 132/65/50 133/64/50
f 121/76/51 120/77/51 131/66/51 132/65/51
f 120/77/52 119/78/52 130/67/52 131/66/52
f 119/78/53 118/79/53 129/68/53 130/67/53
f 118/79/54 117/80/54 128/69/54 129/68/54
f 117/80/55 116/81/55 127/70/55 128/69/55
f 116/81/56 115/20/56 126/22/56 127/70/56
f 10/82/57 114/83/57 125/72/57 9/71/57
f 114/83/58 113/84/58 124/73/58 125/72/58
f 113/84/59 112/85/59 123/74/59 124/73/59
f 112/85/60 111/86/60 122/75/60 123/74/60
f 111/86/61 110/87/61 121/76/61 122/75/61
f 110/87/62 109/88/62 120/77/62 121/76/62
f 109/88/63 108/89/63 119/78/63 120/77/63
f 108/89/64 107/90/64 118/79/64 119/78/64
f 107/90/65 106/91/65 117/80/65 118/79/65
f 106/91/66 105/92/66 116/81/66 117/80/66
f 105/92/67 104/18/67 115/20/67 116/81/67
f 11/93/68 103/94/68 114/83/68 10/82/68
f 103/94/69 102/95/69 113/84/69 114/83/69
f 102/95/70 101/96/70 112/85/70 113/84/70
f 101/96/71 100/97/71 111/86/71 112/85/71
f 100/97/72 99/98/72 110/87/72 111/86/72
f 99/98/73 98/99/73 109/88/73 110/87/73
f 98/99/74 97/100/74 108/89/74 109/88/74
f 97/100/75 96/101/75 107/90/75 108/89/75
f 96/101/76 95/102/76 106/91/76 107/90/76
f 95/102/77 94/103/77 105/92/77 106/91/77
f 94/103/78 93/16/78 104/18/78 105/92/78
f 12/104/79 92/105/79 103/94/79 11/93/79
f 92/105/80 91/106/80 102/95/80 103/94/80
f 91/106/81 90/107/81 101/96/81 102/95/81
f 90/107/82 89/108/82 100/97/82 101/96/82
f 89/108/83 88/109/83 99/98/83 100/97/83
f 88/109/84 87/110/84 98/99/84 99/98/84
f 87/110/85 86/111/85 97/100/85 98/99/85
f 86/111/86 85/112/86 96/101/86 97/100/86
f 85/112/87 84/113/87 95/102/87 96/101/87
f 84/113/88 83/114/88 94/103/88 95/102/88
f 83/114/89 82/14/89 93/16/89 94/103/89
f 13/115/90 81/116/90 92/105/90 12/104/90
f 81/116/91 80/117/91 91/106/91 92/105/91
f 80/117/92 79/118/92 90/107/92 91/106/92
f 79/118/93 78/119/93 89/108/93 90/107/93
f 78/119/94 77/120/94 88/109/94 89/108/94
f 77/120/95 76/121/95 87/110/95 88/109/95
f 76/121/96 75/122/96 86/111/96 87/110/96
f 75/122/97 74/123/97 85/112/97 86/111/97
f 74/123/98 73/124/98 84/113/98 85/112/98
f 73/124/99 72/125/99 83/114/99 84/113/99
f 72/125/100 71/12/100 82/14/100 83/114/100
f 14/126/101 70/127/101 81/116/101 13/115/101
f 70/127/102 69/128/102 80/117/102 81/116/102
f 69/128/103 68/129/103 79/118/103 80/117/103
f 68/129/104 67/130/104 78/119/104 79/118/104
f 67/130/105 66/131/105 77/120/105 78/119/105
f 66/131/106 65/132/106 76/121/106 77/120/106
f 65/132/107 64/133/107 75/122/107 76/121/107
f 64/133/108 63/134/108 74/123/108 75/122/108
f 63/134/109 62/135/109 73/124/109 74/123/109
f 62/135/110 61/136/110 72/125/110 73/124/110
f 61/136/111 60/10/111 71/12/111 72/125/111
f 15/137/112 59/138/112 70/127/112 14/126/112
f 59/138/113 58/139/113 69/128/113 70/127/113
f 58/139/114 57/140/114 68/129/114 69/128/114
f 57/140/115 56/141/115 67/130/115 68/129/115
f 56/141/116 55/142/116 66/131/116 67/130/116
f 55/142/117 54/143/117 65/132/117 66/131/117
f 54/143/118 53/144/118 64/133/118 65/132/118
f 53/144/119 52/145/119 63/134/119 64/133/119
f 52/145/120 51/146/120 62/135/120 63/134/120
f 51/146/121 50/147/121 61/136/121 62/135/121
f 50/147/122 49/8/122 60/10/122 61/136/122
f 1/148/123 27/149/123 59/138/123 15/137/123
f 27/149/124 28/150/124 58/139/124 59/138/124
f 28/150/125 29/151/125 57/140/125 58/139/125
f 29/151/126 30/152/126 56/141/126 57/140/126
f 30/152/127 31/153/127 55/142/127 56/141/127
f 31/153/128 32/154/128 54/143/128 55/142/128
f 32/154/129 33/155/129 53/144/129 54/143/129
f 33/155/130 34/156/130 52/145/130 53/144/130
f 34/156/131 35/157/131 51/146/131 52/145/131
f 35/157/132 36/158/132 50/147/132 51/146/132
f 36/158/133 37/5/133 49/8/133 50/147/133
f 5/30/134 169/29/134 48/159/134 3/160/134
f 169/29/135 168/32/135 47/161/135 48/159/135
f 168/32/136 167/34/136 46/162/136 47/161/136
f 167/34/137 166/36/137 45/163/137 46/162/137
f 166/36/138 165/38/138 44/164/138 45/163/138
f 165/38/139 164/40/139 43/165/139 44/164/139
f 164/40/140 163/42/140 42/166/140 43/165/140
f 163/42/141 162/44/141 41/167/141 42/166/141
f 162/44/142 161/46/142 40/168/142 41/167/142
f 161/46/143 160/48/143 39/169/143 40/168/143
f 160/48/144 159/1/144 38/4/144 39/169/144
